<?xml version="1.0" standalone="no"?>
<!DOCTYPE svg PUBLIC "-//W3C//DTD SVG 20010904//EN"
 "http://www.w3.org/TR/2001/REC-SVG-20010904/DTD/svg10.dtd">
<svg version="1.0" xmlns="http://www.w3.org/2000/svg"
 width="144.000000pt" height="144.000000pt" viewBox="0 0 144.000000 144.000000"
 preserveAspectRatio="xMidYMid meet">
<metadata>
Created by potrace 1.11, written by Peter Selinger 2001-2013
</metadata>
<g transform="translate(0.000000,144.000000) scale(0.100000,-0.100000)"
fill="#000000" stroke="none">
<path d="M183 1360 c-43 -10 -55 -20 -80 -72 -21 -42 -22 -61 -29 -558 -7
-506 -6 -516 14 -555 11 -22 30 -49 42 -60 22 -20 35 -20 595 -18 l574 1 30
23 c17 13 36 39 43 58 16 49 24 1051 9 1102 -6 19 -22 46 -37 60 l-26 24 -551
1 c-304 1 -567 -2 -584 -6z m87 -86 c-14 -35 -13 -36 9 -24 27 14 34 13 27 -5
-7 -19 7 -19 44 0 17 9 30 11 30 5 0 -5 -7 -10 -15 -10 -8 0 -15 -4 -15 -10 0
-5 12 -10 27 -10 25 0 25 -1 9 -19 -10 -11 -15 -25 -11 -30 3 -6 -1 -11 -9
-11 -9 0 -16 5 -16 10 0 6 -7 10 -17 10 -15 0 -15 -2 0 -17 19 -22 26 -51 12
-53 -5 -1 -12 9 -15 21 -6 23 -30 39 -30 20 0 -6 6 -11 13 -12 10 0 10 -2 0
-6 -7 -2 -13 -9 -13 -14 0 -6 5 -7 10 -4 19 12 24 -27 5 -41 -10 -8 -14 -14
-9 -14 6 0 15 5 22 12 15 15 16 3 1 -23 -7 -15 -7 -24 2 -35 9 -11 8 -14 -5
-14 -20 0 -59 -37 -46 -45 5 -3 11 -1 15 5 8 13 25 13 25 0 0 -6 -11 -15 -24
-20 -13 -5 -27 -14 -32 -21 -4 -7 -3 -10 3 -6 6 4 19 -3 29 -15 19 -21 19 -21
-3 -9 -21 11 -23 10 -23 -15 0 -21 4 -25 19 -21 21 5 31 -10 31 -44 0 -15 -5
-19 -18 -15 -13 4 -18 1 -18 -13 0 -11 4 -18 7 -15 4 2 19 -7 33 -21 19 -18
26 -38 29 -75 2 -27 0 -47 -4 -44 -5 3 -9 -4 -9 -16 0 -14 4 -19 13 -15 6 4 5
1 -3 -7 -14 -12 -16 -23 -11 -53 1 -5 6 -3 11 5 5 8 10 11 10 5 0 -5 -5 -17
-10 -25 -6 -10 -10 -11 -10 -2 0 6 -6 12 -14 12 -9 0 -12 -7 -9 -20 3 -11 12
-20 19 -20 17 0 18 -12 3 -27 -5 -5 -11 -21 -13 -34 -1 -14 -6 -31 -10 -38 -5
-7 -3 -18 3 -24 9 -9 11 -7 5 8 -6 16 -4 18 6 8 11 -10 17 -9 32 4 17 15 18
15 18 -1 0 -9 -4 -15 -9 -12 -5 4 -4 -5 2 -19 7 -14 15 -25 20 -25 4 0 7 -5 7
-11 0 -8 -4 -9 -13 0 -8 6 -17 7 -21 3 -4 -4 -6 -2 -4 3 2 6 -2 10 -7 11 -6 0
-9 -8 -7 -19 2 -10 -1 -16 -6 -13 -5 3 -12 -3 -15 -13 -3 -12 1 -22 9 -25 8
-3 14 -10 14 -16 0 -6 -4 -9 -9 -5 -5 3 -12 1 -16 -5 -4 -6 -11 -7 -17 -4 -7
4 -8 -2 -3 -17 13 -42 11 -44 -30 -41 -53 4 -105 30 -115 58 -9 23 -3 947 6
992 2 12 10 22 17 22 7 0 18 9 25 20 7 11 17 20 24 20 6 0 3 -10 -8 -22 -10
-13 -12 -17 -4 -11 8 6 18 12 23 12 4 1 7 4 6 7 -1 6 21 23 28 24 1 0 -2 -12
-7 -26z m56 11 c-25 -19 -36 -19 -36 0 0 10 10 15 28 15 26 -1 26 -1 8 -15z
m37 -5 c-3 -11 -12 -20 -19 -20 -12 0 -12 4 -2 20 7 11 16 20 19 20 4 0 5 -9
2 -20z m956 -47 c1 -7 -2 -13 -6 -13 -5 0 -9 15 -10 33 -1 26 0 28 7 12 5 -11
9 -26 9 -32z m-3 -74 c-2 -27 -7 -53 -11 -57 -7 -7 -5 87 2 101 10 18 14 3 9
-44z m-1 -109 c3 -5 1 -10 -4 -10 -6 0 -11 5 -11 10 0 6 2 10 4 10 3 0 8 -4
11 -10z m-408 -42 c10 -16 10 -19 12 -73 l1 -44 58 -3 c53 -3 57 -5 57 -28 0
-23 -4 -25 -55 -30 l-55 -5 -3 -109 c-1 -60 2 -114 7 -119 5 -5 24 -12 43 -16
26 -5 34 -12 36 -34 3 -26 1 -27 -42 -27 -36 0 -52 6 -78 29 l-32 28 0 124 -1
124 -45 5 c-40 4 -45 8 -45 30 0 22 5 25 43 28 l42 3 0 58 c0 32 3 61 7 64 11
11 41 8 50 -5z m416 -27 c2 -10 1 -24 -3 -31 -5 -7 -9 0 -12 19 -5 34 7 43 15
12z m-6 -108 c-3 -10 -5 -2 -5 17 0 19 2 27 5 18 2 -10 2 -26 0 -35z m-609 5
c20 -20 14 -34 -56 -135 -38 -54 -77 -110 -86 -125 l-18 -27 89 2 88 2 3 -27
c4 -33 -3 -35 -150 -41 -159 -7 -161 0 -43 168 l84 120 -82 5 c-79 5 -82 6
-82 30 0 25 1 25 105 31 58 3 112 6 121 7 8 1 20 -3 27 -10z m-364 -106 c3 -5
-1 -9 -9 -9 -8 0 -12 4 -9 9 3 4 7 8 9 8 2 0 6 -4 9 -8z m34 -117 c-3 -3 -9 2
-12 12 -6 14 -5 15 5 6 7 -7 10 -15 7 -18z m932 -323 c0 -15 -2 -15 -10 -2
-13 20 -13 33 0 25 6 -3 10 -14 10 -23z m0 -44 c0 -16 -37 -78 -46 -78 -3 0 1
11 10 25 9 13 16 33 16 45 0 11 5 20 10 20 6 0 10 -6 10 -12z"/>
<path d="M327 1205 c-5 -10 0 -15 14 -15 12 0 19 5 17 12 -6 18 -25 20 -31 3z"/>
<path d="M250 950 c0 -5 5 -10 11 -10 5 0 7 5 4 10 -3 6 -8 10 -11 10 -2 0 -4
-4 -4 -10z"/>
<path d="M216 911 c-3 -5 1 -12 10 -15 25 -10 34 -7 28 9 -7 17 -30 20 -38 6z"/>
<path d="M250 836 c0 -2 7 -6 15 -10 8 -3 15 -1 15 4 0 6 -7 10 -15 10 -8 0
-15 -2 -15 -4z"/>
<path d="M290 631 c0 -5 7 -11 15 -15 8 -3 15 -1 15 3 0 5 -7 11 -15 15 -8 3
-15 1 -15 -3z"/>
<path d="M260 560 c0 -5 7 -10 16 -10 8 0 12 5 9 10 -3 6 -10 10 -16 10 -5 0
-9 -4 -9 -10z"/>
<path d="M300 300 c0 -5 5 -10 10 -10 6 0 10 5 10 10 0 6 -4 10 -10 10 -5 0
-10 -4 -10 -10z"/>
</g>
</svg>
